<svg width="200" height="200" xmlns="http://www.w3.org/2000/svg">
  <!-- Confetti particles -->
  <rect x="20" y="30" width="10" height="10" fill="#ff69b4" transform="rotate(15)" />
  <rect x="50" y="60" width="8" height="8" fill="#4a90e2" transform="rotate(30)" />
  <rect x="100" y="40" width="12" height="12" fill="#ffd700" transform="rotate(45)" />
  <rect x="140" y="80" width="6" height="6" fill="#4ecdc4" transform="rotate(60)" />
  <rect x="30" y="120" width="10" height="10" fill="#ff6b6b" transform="rotate(75)" />
  <rect x="80" y="160" width="8" height="8" fill="#a78bfa" transform="rotate(90)" />
  <rect x="160" y="140" width="12" height="12" fill="#f97316" transform="rotate(105)" />
  
  <!-- Circular confetti -->
  <circle cx="40" cy="50" r="5" fill="#ff69b4" />
  <circle cx="90" cy="70" r="4" fill="#4a90e2" />
  <circle cx="130" cy="40" r="6" fill="#ffd700" />
  <circle cx="170" cy="90" r="3" fill="#4ecdc4" />
  <circle cx="50" cy="140" r="5" fill="#ff6b6b" />
  <circle cx="100" cy="180" r="4" fill="#a78bfa" />
  <circle cx="180" cy="160" r="6" fill="#f97316" />
  
  <!-- Triangle confetti -->
  <polygon points="20,10 25,20 15,20" fill="#ff69b4" transform="rotate(120, 20, 20)" />
  <polygon points="60,20 65,30 55,30" fill="#4a90e2" transform="rotate(135, 60, 30)" />
  <polygon points="120,15 125,25 115,25" fill="#ffd700" transform="rotate(150, 120, 25)" />
  <polygon points="160,25 165,35 155,35" fill="#4ecdc4" transform="rotate(165, 160, 35)" />
  <polygon points="30,100 35,110 25,110" fill="#ff6b6b" transform="rotate(180, 30, 110)" />
  <polygon points="70,150 75,160 65,160" fill="#a78bfa" transform="rotate(195, 70, 160)" />
  <polygon points="150,120 155,130 145,130" fill="#f97316" transform="rotate(210, 150, 130)" />
</svg> 